<svg width="20" height="21" viewBox="0 0 20 21" fill="none" xmlns="http://www.w3.org/2000/svg">
<g clip-path="url(#clip0_1_1978)">
<path d="M13.5631 11.8499L10.7746 9.74359V5.45298C10.7746 5.02157 10.4283 4.67285 9.99997 4.67285C9.57161 4.67285 9.22536 5.02157 9.22536 5.45298V10.1337C9.22536 10.3794 9.34001 10.6111 9.5352 10.7578L12.6336 13.0982C12.773 13.2035 12.9357 13.2542 13.0976 13.2542C13.3338 13.2542 13.5662 13.1473 13.718 12.9414C13.9752 12.5973 13.9055 12.1081 13.5631 11.8499Z" fill="#D20373"/>
<path d="M10 0C4.48566 0 0 4.51765 0 10.0713C0 15.625 4.48566 20.1426 10 20.1426C15.5143 20.1426 20 15.625 20 10.0713C20 4.51765 15.5143 0 10 0ZM10 18.5824C5.34082 18.5824 1.54918 14.7637 1.54918 10.0713C1.54918 5.3789 5.34082 1.56023 10 1.56023C14.66 1.56023 18.4508 5.3789 18.4508 10.0713C18.4508 14.7637 14.6592 18.5824 10 18.5824Z" fill="#D20373"/>
</g>
<defs>
<clipPath id="clip0_1_1978">
<rect width="20" height="20.1426" fill="white"/>
</clipPath>
</defs>
</svg>
