<svg width="20" height="21" viewBox="0 0 20 21" fill="none" xmlns="http://www.w3.org/2000/svg">
<g clip-path="url(#clip0_1_1976)">
<path d="M18.125 2.51782H1.87501C0.841067 2.51782 0 3.36489 0 4.4062V15.7364C0 16.7777 0.841067 17.6248 1.87501 17.6248H18.125C19.1589 17.6248 20 16.7777 20 15.7364V4.4062C20 3.36489 19.1589 2.51782 18.125 2.51782ZM18.125 3.77673C18.2099 3.77673 18.2907 3.79447 18.3645 3.82546L10 11.1268L1.63542 3.82546C1.70927 3.79452 1.79005 3.77673 1.87497 3.77673H18.125ZM18.125 16.3658H1.87501C1.53017 16.3658 1.24999 16.0837 1.24999 15.7364V5.15551L9.59045 12.4354C9.70826 12.5381 9.85413 12.5891 10 12.5891C10.1459 12.5891 10.2917 12.5381 10.4096 12.4354L18.75 5.15551V15.7364C18.75 16.0837 18.4698 16.3658 18.125 16.3658Z" fill="#D20373"/>
</g>
<defs>
<clipPath id="clip0_1_1976">
<rect width="20" height="20.1426" fill="white"/>
</clipPath>
</defs>
</svg>
