<svg width="63" height="63" viewBox="0 0 63 63" fill="none" xmlns="http://www.w3.org/2000/svg">
<g clip-path="url(#clip0_1_132)">
<path d="M47.6904 38.0495V12.7991C47.6904 11.6123 46.7248 10.6467 45.538 10.6467H14.1973C13.0105 10.6467 12.0449 11.6123 12.0449 12.7991V38.0494C12.0449 39.2361 13.0105 40.2017 14.1973 40.2017H45.538C46.7248 40.2018 47.6904 39.2363 47.6904 38.0495ZM13.8898 38.0495V28.1913L18.7742 23.3068C18.8525 23.2284 18.944 23.2167 18.9917 23.2167C19.0393 23.2167 19.1306 23.2284 19.2091 23.3068L20.2601 24.3578C20.6202 24.7181 21.2043 24.718 21.5647 24.3578C21.9248 23.9975 21.9249 23.4136 21.5646 23.0533L20.5136 22.0023C20.1072 21.5958 19.5667 21.3718 18.9918 21.3718C18.4168 21.3718 17.8764 21.5957 17.4698 22.0022L13.89 25.5821V12.7991C13.89 12.6295 14.0279 12.4916 14.1975 12.4916H45.5383C45.7078 12.4916 45.8458 12.6295 45.8458 12.7991V38.0494C45.8458 38.2189 45.7078 38.3568 45.5383 38.3568H44.6384L33.1457 26.864C32.3064 26.0251 30.9411 26.0251 30.1018 26.8642L27.7389 29.2271L24.5042 25.9924C24.144 25.6321 23.56 25.6321 23.1995 25.9924C22.8393 26.3525 22.8393 26.9366 23.1995 27.2969L26.6518 30.7492C26.9422 31.0395 27.3283 31.1995 27.7389 31.1995C28.1495 31.1995 28.5358 31.0395 28.8261 30.7491L31.4065 28.1687C31.5263 28.0489 31.7213 28.0489 31.8413 28.1687L42.0294 38.3568H14.1973C14.0277 38.3568 13.8898 38.2189 13.8898 38.0495Z" fill="#D20373"/>
<path d="M53.8843 45.0846V33.2713C53.8843 32.7618 53.4714 32.3488 52.9619 32.3488C52.4523 32.3488 52.0394 32.7617 52.0394 33.2713V43.6937C50.4939 42.7785 48.6929 42.2509 46.7702 42.2509C41.4892 42.2509 37.1203 46.218 36.4796 51.3281H8.62279C8.11412 51.3281 7.70031 50.9143 7.70031 50.4057V2.76732C7.70031 2.25865 8.11412 1.84484 8.62279 1.84484H51.1169C51.6256 1.84484 52.0394 2.25865 52.0394 2.76732V28.6758C52.0394 29.1852 52.4523 29.5983 52.9619 29.5983C53.4714 29.5983 53.8843 29.1854 53.8843 28.6758V2.76732C53.8843 1.24142 52.6429 0 51.117 0H8.62279C7.09689 0 5.85547 1.24142 5.85547 2.76732V50.4057C5.85547 51.9316 7.09689 53.173 8.62279 53.173H36.4116C36.5105 55.0754 37.1228 56.8981 38.2004 58.4743C38.488 58.8949 39.0621 59.0026 39.4825 58.7153C39.903 58.4277 40.0109 57.8537 39.7234 57.4331C38.7533 56.0141 38.2405 54.3517 38.2405 52.6254C38.2405 47.9221 42.0669 44.0958 46.7702 44.0958C51.4734 44.0958 55.2998 47.9222 55.2998 52.6254C55.2998 57.3286 51.4734 61.1552 46.7702 61.1552C45.368 61.1552 43.9782 60.8079 42.7509 60.151C42.3017 59.9107 41.7427 60.0798 41.5024 60.5288C41.262 60.978 41.4311 61.537 41.8804 61.7774C43.3744 62.5772 45.0653 62.9999 46.7702 62.9999C52.4907 62.9999 57.1447 58.3459 57.1447 52.6253C57.1447 49.6568 55.8895 46.9775 53.8843 45.0846Z" fill="#D20373"/>
<path d="M46.7714 47.8787C46.2619 47.8787 45.8489 48.2916 45.8489 48.8011V51.7295H42.9205C42.411 51.7295 41.998 52.1425 41.998 52.652C41.998 53.1616 42.411 53.5745 42.9205 53.5745H45.8489V56.5029C45.8489 57.0123 46.2619 57.4254 46.7714 57.4254C47.2809 57.4254 47.6939 57.0124 47.6939 56.5029V53.5745H50.6223C51.1318 53.5745 51.5448 53.1616 51.5448 52.652C51.5448 52.1425 51.1318 51.7295 50.6223 51.7295H47.6939V48.8011C47.6938 48.2917 47.2808 47.8787 46.7714 47.8787Z" fill="#D20373"/>
<path d="M15.5488 44.6535C15.6195 43.9435 15.1011 43.3106 14.3911 43.24C13.6811 43.1693 13.0482 43.6877 12.9775 44.3977C12.9069 45.1077 13.4252 45.7406 14.1353 45.8113C14.8453 45.8819 15.4782 45.3636 15.5488 44.6535Z" fill="#D20373"/>
<path d="M20.1153 44.6538C20.1859 43.9437 19.6676 43.3108 18.9575 43.2402C18.2475 43.1695 17.6146 43.6879 17.5439 44.3979C17.4733 45.108 17.9916 45.7409 18.7017 45.8115C19.4117 45.8822 20.0446 45.3638 20.1153 44.6538Z" fill="#D20373"/>
<path d="M24.6836 44.6543C24.7543 43.9442 24.2359 43.3114 23.5259 43.2407C22.8158 43.1701 22.1829 43.6884 22.1123 44.3984C22.0416 45.1085 22.56 45.7414 23.27 45.812C23.9801 45.8826 24.613 45.3643 24.6836 44.6543Z" fill="#D20373"/>
<path d="M33.4194 7.66772C33.929 7.66772 34.3419 7.25477 34.3419 6.74524C34.3419 6.2357 33.929 5.82275 33.4194 5.82275H29.4225C28.9129 5.82275 28.5 6.2357 28.5 6.74524C28.5 7.25477 28.9129 7.66772 29.4225 7.66772H33.4194Z" fill="#D20373"/>
<path d="M24.6864 7.66772C25.1959 7.66772 25.6088 7.25477 25.6088 6.74524C25.6088 6.2357 25.1959 5.82275 24.6864 5.82275H13.7701C13.2606 5.82275 12.8477 6.2357 12.8477 6.74524C12.8477 7.25477 13.2606 7.66772 13.7701 7.66772H24.6864Z" fill="#D20373"/>
<path d="M37.6851 23.5858C39.4866 23.5858 40.9522 22.1202 40.9522 20.3187C40.9522 18.5171 39.4866 17.0515 37.6851 17.0515C35.8836 17.0515 34.418 18.5171 34.418 20.3187C34.418 22.1202 35.8836 23.5858 37.6851 23.5858ZM37.6851 18.8965C38.4693 18.8965 39.1073 19.5345 39.1073 20.3187C39.1073 21.1028 38.4693 21.7408 37.6851 21.7408C36.9009 21.7408 36.2629 21.1028 36.2629 20.3187C36.2628 19.5346 36.9009 18.8965 37.6851 18.8965Z" fill="#D20373"/>
</g>
<defs>
<clipPath id="clip0_1_132">
<rect width="63" height="63" fill="white"/>
</clipPath>
</defs>
</svg>
