<svg width="20" height="21" viewBox="0 0 20 21" fill="none" xmlns="http://www.w3.org/2000/svg">
<g clip-path="url(#clip0_1_1974)">
<path d="M9.99998 4.32995C7.95264 4.32995 6.28698 6.00749 6.28698 8.06943C6.28698 10.1314 7.95264 11.8089 9.99998 11.8089C12.0473 11.8089 13.713 10.1314 13.713 8.06943C13.713 6.00749 12.0474 4.32995 9.99998 4.32995ZM9.99998 10.2344C8.81467 10.2344 7.85033 9.2632 7.85033 8.06943C7.85033 6.87567 8.81467 5.90446 9.99998 5.90446C11.1853 5.90446 12.1496 6.87567 12.1496 8.06943C12.1496 9.2632 11.1853 10.2344 9.99998 10.2344Z" fill="#D20373"/>
<path d="M9.99999 0C5.58198 0 1.98769 3.61996 1.98769 8.06943V8.2925C1.98769 10.5428 3.2687 13.1651 5.79526 16.0865C7.62683 18.2043 9.4328 19.681 9.50874 19.7428L9.99999 20.1426L10.4912 19.7429C10.5672 19.681 12.3732 18.2043 14.2047 16.0865C16.7312 13.1651 18.0123 10.5428 18.0123 8.29254V8.06947C18.0123 3.61996 14.418 0 9.99999 0ZM16.4489 8.29254C16.4489 12.0954 11.5837 16.6989 9.99999 18.0964C8.41589 16.6985 3.55105 12.0952 3.55105 8.29254V8.06947C3.55105 4.48818 6.44405 1.57455 9.99999 1.57455C13.5559 1.57455 16.4489 4.48818 16.4489 8.06947V8.29254Z" fill="#D20373"/>
</g>
<defs>
<clipPath id="clip0_1_1974">
<rect width="20" height="20.1426" fill="white"/>
</clipPath>
</defs>
</svg>
