<svg width="22" height="22" viewBox="0 0 22 22" fill="none" xmlns="http://www.w3.org/2000/svg">
<g clip-path="url(#clip0_1_1960)">
<path d="M3.23529 14.0415H4.52941V15.3356H3.23529V14.0415Z" fill="white"/>
<path d="M18.1177 11.1938C18.1649 11.1211 22 6.58178 22 4.33572C22 2.19495 20.2584 0.453369 18.1177 0.453369C15.9769 0.453369 14.2353 2.19495 14.2353 4.33572C14.2353 6.56975 18.079 11.1343 18.1177 11.1938ZM18.1177 1.74749C19.5448 1.74749 20.7059 2.90857 20.7059 4.33572C20.7059 5.32037 19.277 7.5528 18.1177 9.10143C16.9583 7.5528 15.5294 5.32037 15.5294 4.33572C15.5294 2.90857 16.6905 1.74749 18.1177 1.74749Z" fill="white"/>
<path d="M17.4706 3.68848H18.7647V4.9826H17.4706V3.68848Z" fill="white"/>
<path d="M3.88235 10.8064C1.74162 10.8064 0 12.548 0 14.6887C0 16.9228 3.8437 21.4874 3.88235 21.5469C5.07398 20.0577 7.76471 16.589 7.76471 14.6887C7.76471 12.548 6.02308 10.8064 3.88235 10.8064ZM3.88235 19.4545C2.72304 17.9058 1.29412 15.6734 1.29412 14.6887C1.29412 13.2615 2.4552 12.1005 3.88235 12.1005C5.30951 12.1005 6.47059 13.2615 6.47059 14.6887C6.47059 15.6734 5.04167 17.9058 3.88235 19.4545Z" fill="white"/>
<path d="M20.0588 17.277H12.6176C12.0824 17.277 11.6471 16.8416 11.6471 16.3064C11.6471 15.7712 12.0824 15.3358 12.6176 15.3358H18.7647V12.7476H17.4706V14.0417H12.6176C11.3689 14.0417 10.3529 15.0576 10.3529 16.3064C10.3529 17.5551 11.3689 18.5711 12.6176 18.5711H20.0588C20.4156 18.5711 20.7059 18.8614 20.7059 19.2182C20.7059 19.575 20.4156 19.8652 20.0588 19.8652H6.47058V21.1593H20.0588C21.1292 21.1593 22 20.2885 22 19.2182C22 18.1477 21.1292 17.277 20.0588 17.277Z" fill="white"/>
</g>
<defs>
<clipPath id="clip0_1_1960">
<rect width="22" height="22" fill="white"/>
</clipPath>
</defs>
</svg>
