<svg width="20" height="21" viewBox="0 0 20 21" fill="none" xmlns="http://www.w3.org/2000/svg">
<g clip-path="url(#clip0_1_1985)">
<path d="M4.07539 13.3894C6.04804 15.7643 8.42268 17.6342 11.133 18.9573C12.1649 19.4498 13.5449 20.0341 15.0824 20.1343C15.1778 20.1384 15.2689 20.1426 15.3642 20.1426C16.3962 20.1426 17.225 19.7837 17.9005 19.0449C17.9047 19.0407 17.9129 19.0324 17.9171 19.024C18.1575 18.7319 18.431 18.4689 18.7169 18.1893C18.9117 18.0015 19.1106 17.8053 19.3013 17.605C20.184 16.6784 20.184 15.5014 19.293 14.604L16.8023 12.0956C16.3796 11.6532 15.874 11.4194 15.3435 11.4194C14.8131 11.4194 14.3033 11.6532 13.8682 12.0914L12.3846 13.5856C12.2478 13.5063 12.1069 13.4354 11.9743 13.3686C11.8085 13.2851 11.6552 13.2058 11.5184 13.1182C10.1674 12.2542 8.9407 11.1273 7.76789 9.67897C7.17527 8.92351 6.77742 8.2891 6.49976 7.64217C6.88931 7.2874 7.25401 6.91593 7.60626 6.55281C7.73059 6.42343 7.85906 6.29404 7.98753 6.16465C8.43511 5.71389 8.67547 5.19217 8.67547 4.6621C8.67547 4.13203 8.43925 3.61031 7.98753 3.15954L6.75255 1.91576C6.60751 1.76968 6.47075 1.62777 6.32984 1.48169C6.05633 1.19787 5.77037 0.905708 5.48857 0.64276C5.06171 0.22121 4.56026 0 4.0298 0C3.50349 0 2.99789 0.22121 2.55446 0.646934L1.00452 2.20792C0.440905 2.77556 0.1218 3.46423 0.0554928 4.26142C-0.0232474 5.25895 0.159098 6.31908 0.63154 7.60043C1.35678 9.58297 2.45085 11.4236 4.07539 13.3894ZM1.06668 4.34907C1.11641 3.79395 1.32777 3.33067 1.72561 2.92998L3.26726 1.37734C3.50763 1.14361 3.77286 1.02257 4.0298 1.02257C4.2826 1.02257 4.53954 1.14361 4.77576 1.38569C5.05342 1.64446 5.31451 1.91576 5.59632 2.20375C5.73722 2.34983 5.88227 2.49591 6.02732 2.64617L7.26229 3.88995C7.51924 4.14873 7.65185 4.41167 7.65185 4.67045C7.65185 4.92922 7.51924 5.19217 7.26229 5.45094C7.13382 5.58033 7.00535 5.71389 6.87688 5.84327C6.49147 6.23561 6.13092 6.60707 5.73308 6.96184C5.72479 6.97019 5.72064 6.97437 5.71236 6.98271C5.36839 7.32914 5.42226 7.65886 5.50514 7.90929C5.50929 7.92181 5.51343 7.93016 5.51758 7.94268C5.83668 8.71483 6.28011 9.44941 6.9722 10.3259C8.21547 11.8702 9.52504 13.0681 10.9672 13.9905C11.1454 14.1073 11.3361 14.1992 11.5143 14.291C11.68 14.3745 11.8334 14.4538 11.9701 14.5414C11.9867 14.5498 11.9991 14.5581 12.0157 14.5664C12.1525 14.6374 12.2851 14.6708 12.4177 14.6708C12.7492 14.6708 12.9647 14.4579 13.0352 14.387L14.5851 12.826C14.8255 12.5839 15.0866 12.4545 15.3435 12.4545C15.6585 12.4545 15.9154 12.6507 16.0771 12.826L18.576 15.3386C19.0733 15.8394 19.0692 16.382 18.5636 16.9121C18.3895 17.0999 18.2072 17.2794 18.0124 17.4672C17.7223 17.751 17.4198 18.0432 17.1463 18.3729C16.6697 18.8905 16.1019 19.1326 15.3684 19.1326C15.2979 19.1326 15.2233 19.1284 15.1529 19.1242C13.7936 19.0366 12.5296 18.5023 11.5806 18.0474C9.00287 16.7911 6.74012 15.0089 4.86279 12.7467C3.317 10.8727 2.2768 9.12803 1.58885 7.25818C1.162 6.1104 1.00038 5.18799 1.06668 4.34907Z" fill="#D20373"/>
</g>
<defs>
<clipPath id="clip0_1_1985">
<rect width="20" height="20.1426" fill="white"/>
</clipPath>
</defs>
</svg>
